<svg xmlns="http://www.w3.org/2000/svg" xmlns:xlink="http://www.w3.org/1999/xlink" width="938" height="806" viewBox="0 0 938 806"><defs><clipPath id="b"><rect width="938" height="806"/></clipPath></defs><g id="a" clip-path="url(#b)"><rect width="938" height="806" fill="#fff"/><g transform="translate(0 -1)"><circle cx="33" cy="33" r="33" transform="translate(0.247 21.424)" fill="#ff6584"/><path d="M200.747,204.425v-13h-50v13h-10v-183h-107v307h195v-124Z" fill="#e6e6e6"/><path d="M702.265,217.542l-.186.18v-.18l0,.183c-2.529,2.46-30.692,30.249-41.618,58.435-3.627-4.035-6.192-6.5-6.192-6.5l-.122.118v-.118l0,.12c-2.061,2-30.1,29.67-30.1,51.593,0,21.166,11.7,29.52,26.766,30.586l-1.093,20.878h3.052l.338-20.772c.384.009.769.014,1.157.014,11.13,0,20.849-3.542,26.093-12.647a53.913,53.913,0,0,0,16.637,3.671l-1.667,31.855h4.657l.515-31.692c.586.013,1.174.022,1.766.022,25.465,0,46.108-12.125,46.108-46.849S702.265,217.542,702.265,217.542Z" transform="translate(-131.076 -46.518)" fill="#f2f2f2"/><path d="M592.373,239.233V220.962h-56v18.271h-26V166.962h-25v-28h-56v28h-26V280.418a154.533,154.533,0,0,0-12.108-13.456l-.122.118v-.118l0,.12c-2.061,2-30.1,29.67-30.1,51.593,0,21.166,11.7,29.52,26.766,30.586l-1.093,20.878h3.053l.337-20.772c.384.009.769.014,1.157.014a40.129,40.129,0,0,0,12.108-1.711v27.291h214V239.233Z" transform="translate(-130.877 -46.538)" fill="#f2f2f2"/><path d="M1023.26,218.841l-.186.18v-.18l0,.183c-2.618,2.546-32.7,32.228-42.7,61.4V265.962l-96-145-96,145v109h192V318.605c6.135,17.156,20.445,24.586,37.621,25.8l-1.667,31.855h4.657l.515-31.692c.586.013,1.174.022,1.766.022,25.465,0,46.108-12.125,46.108-46.849S1023.26,218.841,1023.26,218.841Z" transform="translate(-131.368 -46.538)" fill="#f2f2f2"/><ellipse cx="126.5" cy="11.66" rx="126.5" ry="11.66" transform="translate(26.247 344.458)" fill="#f2f2f2"/><ellipse cx="56.417" cy="5.2" rx="56.417" ry="5.2" transform="translate(797.09 498.642)" fill="#f2f2f2"/><ellipse cx="56.417" cy="5.2" rx="56.417" ry="5.2" transform="translate(193.657 407.633)" fill="#f2f2f2"/><path d="M1008.87,529.433c0,14.581-8.668,19.672-19.361,19.672q-.372,0-.742-.008c-.5-.011-.986-.034-1.471-.067-9.65-.683-17.148-6.036-17.148-19.6,0-14.034,17.933-31.742,19.28-33.052l0,0,.078-.076S1008.87,514.852,1008.87,529.433Z" transform="translate(-131.368 -46.492)" fill="#00bad6"/><path d="M988.807,546.875l7.081-9.894-7.1,10.981-.019,1.136c-.5-.011-.986-.034-1.471-.067l.763-14.588-.006-.113.013-.021.072-1.378-7.116-11.008,7.139,9.975.017.293.577-11.022-6.092-11.375,6.167,9.44.6-22.851,0-.078v.076l-.1,18.019,6.065-7.144-6.09,8.7-.16,9.868,5.663-9.471-5.687,10.923-.09,5.486,8.222-13.182-8.252,15.1Z" transform="translate(-131.368 -46.492)" fill="#3f3d56"/><ellipse cx="105.248" cy="9.702" rx="105.248" ry="9.702" transform="translate(0 674.301)" fill="#f2f2f2"/><path d="M280.645,691.476c0,27.2-16.17,36.7-36.118,36.7q-.693,0-1.384-.015c-.924-.02-1.84-.064-2.744-.125-18-1.274-31.99-11.26-31.99-36.558,0-26.18,33.456-59.216,35.968-61.66l0,0,.145-.141S280.645,664.274,280.645,691.476Z" transform="translate(-130.627 -46.475)" fill="#00bad6"/><path d="M243.211,724.014l13.21-18.458L243.178,726.04l-.035,2.119c-.924-.02-1.84-.064-2.744-.125l1.424-27.215-.011-.211.024-.04.134-2.57-13.276-20.535,13.318,18.608.031.546,1.076-20.562-11.366-21.22,11.5,17.611,1.12-42.63,0-.145v.141l-.187,33.616L255.51,650.1l-11.362,16.223-.3,18.41,10.565-17.669-10.609,20.377-.167,10.235,15.338-24.592-15.4,28.163Z" transform="translate(-130.627 -46.475)" fill="#3f3d56"/><path d="M426.873,272.866c0,57.425-34.138,77.475-76.25,77.475s-76.25-20.051-76.25-77.475,76.25-130.478,76.25-130.478S426.873,215.441,426.873,272.866Z" transform="translate(-130.762 -46.538)" fill="#00bad6"/><path d="M217.219,295.019,218,246.96,250.5,187.5l-32.378,51.918.351-21.61,22.4-43.016-22.306,37.3h0l.632-38.866,23.985-34.246L219.3,167.115l.4-71.266-2.48,94.344.2-3.892L193.03,148.974l23.995,44.8-2.272,43.406-.068-1.152-28.112-39.28L214.6,240.1l-.284,5.428-.051.082.023.446-5.764,110.125h7.7l.924-56.882,27.958-43.244Z" transform="translate(-0.158)" fill="#3f3d56"/><path d="M293.156,272.866c0,57.425-34.138,77.475-76.25,77.475s-76.25-20.051-76.25-77.475,76.25-130.478,76.25-130.478S293.156,215.441,293.156,272.866Z" transform="translate(-130.627 -46.538)" fill="#00bad6"/><path d="M83.5,295.019l.781-48.059,32.5-59.457L84.4,239.421l.351-21.61,22.4-43.016-22.306,37.3h0l.632-38.866,23.984-34.246L85.58,167.115l.394-71.266L83.5,190.193l.2-3.892L59.313,148.974l23.995,44.8-2.272,43.406-.068-1.152-28.112-39.28L80.883,240.1l-.284,5.428-.051.082.023.446L74.807,356.177h7.7l.924-56.882,27.958-43.244Z" fill="#3f3d56"/><path d="M395.873,222.976c0,77.652-46.163,104.766-103.108,104.766S189.657,300.629,189.657,222.976,292.765,46.538,292.765,46.538,395.873,145.324,395.873,222.976Z" transform="translate(-130.627 -46.538)" fill="#f2f2f2"/><path d="M158.382,269.326l1.056-64.988,43.947-80.4L159.6,194.143l.474-29.221,30.289-58.168L160.2,157.189h0l.854-52.556,32.433-46.309-32.3,38.045L161.725,0l-3.352,127.575.275-5.263L125.673,71.838l32.447,60.577-3.073,58.7-.091-1.558-38.015-53.117,37.9,58.621-.385,7.34-.069.11.032.6-7.8,148.916h10.415l1.249-76.918L196.1,216.632Z" fill="#3f3d56"/><path d="M393.873,447.962a12.938,12.938,0,0,1-.745,4.355,13.106,13.106,0,0,1-3.522,5.283,12.966,12.966,0,0,1-5.909,3.049,12.731,12.731,0,0,1-2.824.313A12.973,12.973,0,0,1,369.6,454.45a13,13,0,1,1,24.269-6.488Z" transform="translate(-130.819 -46.5)" fill="#3f3d56"/><path d="M240.449,392.88l1.164-.148,2.216,2.913-1.412,3.375-3.628.46-1.093-1.441Z" transform="translate(-0.189 0.037)" fill="#f2f2f2"/><path d="M247.734,406.7l-3.63.462-2.215-2.913,1.416-3.375,3.629-.461,2.215,2.912Z" transform="translate(-0.193 0.038)" fill="#f2f2f2"/><path d="M375.047,456.956l-.9,2.139a13.108,13.108,0,0,1-4.544-4.645l3.226-.408Z" transform="translate(-130.817 -46.499)" fill="#f2f2f2"/><path d="M251.87,396.655l-3.629.462-2.215-2.913,1.415-3.374,3.63-.462,2.214,2.913Z" transform="translate(-0.196 0.037)" fill="#f2f2f2"/><path d="M257.189,404.337l-3.63.462-2.215-2.913,1.415-3.374,3.63-.462,2.215,2.913Z" transform="translate(-0.2 0.038)" fill="#f2f2f2"/><path d="M384.5,458.729l-.8,1.92a12.73,12.73,0,0,1-2.825.313,12.865,12.865,0,0,1-2.878-.325l-.75-.987,1.412-3.374,3.628-.461Z" transform="translate(-130.823 -46.499)" fill="#f2f2f2"/><path d="M392.437,442.024l-3.522.449L386.7,439.56l1.093-2.606a13.008,13.008,0,0,1,4.645,5.07Z" transform="translate(-130.83 -46.501)" fill="#f2f2f2"/><path d="M393.129,452.317a13.107,13.107,0,0,1-3.522,5.283l-1.135-1.5,1.412-3.374Z" transform="translate(-130.831 -46.499)" fill="#f2f2f2"/><ellipse cx="243" cy="14.25" rx="243" ry="14.25" transform="translate(303.249 778.5)" fill="#f2f2f2"/><path d="M557.987,798.313l-51.267,46c-22.987-10.08-38.249-27.233-46-51.267l51.266-46C512.313,777.269,527.963,794.08,557.987,798.313Z" transform="translate(-130.918 -46.462)" fill="#e6e6e6"/><rect width="45.541" height="0.999" transform="translate(340.793 750.875) rotate(-40.499)" fill="#3f3d56"/><rect width="44.944" height="0.999" transform="translate(345.516 757.601) rotate(-42.059)" fill="#3f3d56"/><path d="M583.226,631.3l-68.494,7.248c-12.726-21.635-15.048-44.477-7.248-68.494l68.494-7.248C558.536,587.491,561.372,610.283,583.226,631.3Z" transform="translate(-130.948 -46.484)" fill="#f2f2f2"/><rect width="45.541" height="0.999" transform="translate(382.919 533.471) rotate(-4.641)" fill="#3f3d56"/><rect width="44.944" height="0.999" transform="translate(382.816 541.694) rotate(-6.201)" fill="#3f3d56"/><path d="M520.585,486.124,474.8,434.672c10.173-22.946,27.387-38.139,51.453-45.789l45.789,51.453C541.814,440.536,524.94,456.118,520.585,486.124Z" transform="translate(-130.93 -46.501)" fill="#e6e6e6"/><rect width="0.999" height="45.541" transform="matrix(0.763, -0.646, 0.646, 0.763, 390.203, 353.979)" fill="#3f3d56"/><rect width="0.999" height="44.944" transform="matrix(0.745, -0.667, 0.667, 0.745, 383.487, 358.707)" fill="#3f3d56"/><path d="M741.62,388.3s25.741-12.381,44.059-7.766L741.62,261.714v-12.2l62.362,148.379h0c15.592,29.39,35.3,96.374,1.7,101.752-38.13,6.1-106.763,28.979-106.763,28.979L683.663,395.93Z" transform="translate(-131.141 -46.509)" fill="#2f2e41"/><path d="M605.116,350.174l-16.777-9.151s-10.676,27.453-10.676,32.029,16.777,6.1,16.777,6.1Z" transform="translate(-130.991 -46.509)" fill="#d0cde1"/><circle cx="39.655" cy="39.655" r="39.655" transform="translate(498.462 108.413)" fill="#ffb9b9"/><path d="M699.677,190.03s16.777,50.331,28.979,53.382-47.281,25.928-47.281,25.928-18.3-42.705-27.453-53.382S699.677,190.03,699.677,190.03Z" transform="translate(-131.076 -46.523)" fill="#ffb9b9"/><path d="M795,484.391c32.875-5.26,14.73-69.473-.671-99.78a20.194,20.194,0,0,1,3.721,3.693c15.252,19.827,45.756,105.238,7.626,111.339s-106.763,28.979-106.763,28.979l-2.075-18.052C716.451,504.273,765.1,489.175,795,484.391Z" transform="translate(-131.144 -46.499)" opacity="0.1"/><path d="M847.62,746.723s38.13,30.5,35.079,33.554-35.079,51.856-62.533,56.432-39.655,4.576-39.655,0,7.626-15.252,21.353-19.827,15.252-35.079,13.727-41.18S847.62,746.723,847.62,746.723Z" transform="translate(-131.203 -46.462)" fill="#2f2e41"/><path d="M733.231,519.47l24.4,114.389S858.3,746.723,855.246,748.248s-33.554,32.029-39.655,32.029S704.252,661.312,704.252,661.312l-38.13-99.137Z" transform="translate(-131.157 -46.462)" fill="#2f2e41"/><path d="M733.231,519.47l24.4,114.389S858.3,746.723,855.246,748.248s-33.554,32.029-39.655,32.029S704.252,661.312,704.252,661.312l-38.13-99.137Z" transform="translate(-131.157 -46.462)" opacity="0.1"/><path d="M757.634,482.866s-12.2,51.856-45.755,86.935-48.806,106.763-48.806,106.763L629.519,819.932s-59.482-7.626-56.432-22.878l32.029-126.591s36.6-175.4,56.432-187.6S757.634,482.866,757.634,482.866Z" transform="translate(-131.062 -46.462)" fill="#2f2e41"/><path d="M626.468,807.731s9.151,28.979,3.05,32.029-114.388,9.151-120.489-12.2c0,0-3.05-10.676,21.353-10.676S580.713,794,580.713,794Z" transform="translate(-130.971 -46.462)" fill="#2f2e41"/><path d="M672.224,263.239s39.655-39.655,50.331-36.6,10.676,18.3,10.676,18.3,33.554,4.576,30.5,114.389,27.453,122.015,16.777,128.116-132.691,33.553-137.267,6.1S640.195,360.851,652.4,327.3,679.85,272.39,672.224,263.239Z" transform="translate(-131.102 -46.512)" fill="#575a89"/><path d="M692.05,198.987c-3.383-.2-6.686.941-10.045,1.387-12.019,1.6-24.522-7.126-27.176-18.956a14.544,14.544,0,0,0-1.39-4.529c-1.85-3.02-6.062-3.6-9.535-2.9s-6.765,2.32-10.3,2.505c-5.461.287-10.7-3.075-13.613-7.7s-3.734-10.326-3.341-15.78l2.618,2.747a13.3,13.3,0,0,0,1.185-7.226,8.386,8.386,0,0,1,7.943,2.032c2.308.246.566-4.281,2.281-5.846.718-.655,1.819-.532,2.791-.522,4.911.047,8.883-3.709,12.753-6.732a54.191,54.191,0,0,1,22.888-10.44c5.545-1.082,11.441-1.255,16.7.809,4.319,1.7,7.933,4.784,11.278,8,8.233,7.917,15.523,17.218,18.948,28.114a47.328,47.328,0,0,1,.227,27.444c-1.38,4.658-5.539,20.611-11.629,20.982C696.98,212.839,701.574,199.556,692.05,198.987Z" transform="translate(-131.057 -46.538)" fill="#2f2e41"/><g transform="translate(1178 -196)"><rect width="54" height="117" transform="translate(-800.739 408.857) rotate(-30)" fill="#3f3d56"/><path d="M0,0H50V113.385H0Z" transform="translate(-797.914 408.655) rotate(-30)" fill="#00bad6"/><path d="M0,0H18s.015,2.474,0,3.272-18,.941-18,0S0,0,0,0Z" transform="translate(-783.794 400.036) rotate(-30)" fill="#3f3d56"/><g transform="translate(-5 -1)"><rect width="57" height="75" transform="translate(-769.494 424.372) rotate(-30)" fill="#fff"/><circle cx="10.5" cy="10.5" r="10.5" transform="translate(-744 415)" fill="#3f3d56"/><rect width="41" height="2" rx="1" transform="translate(-741.504 453.853) rotate(-30)" fill="rgba(112,112,112,0.5)"/><rect width="41" height="2" rx="1" transform="translate(-738.504 457.853) rotate(-30)" fill="rgba(112,112,112,0.5)"/><rect width="27" height="2" rx="1" transform="translate(-729.441 458.353) rotate(-30)" fill="rgba(112,112,112,0.5)"/><rect width="30" height="7" transform="translate(-725.74 466.969) rotate(-30)" fill="#00bad6"/></g></g><path d="M722.555,272.39s45.756,21.353,19.827,62.533-45.755,85.41-73.208,83.885-70.159-27.453-82.36-27.453,4.576-44.23,13.727-45.756S652.4,370,652.4,370,667.648,266.289,722.555,272.39Z" transform="translate(-131.061 -46.512)" fill="#575a89"/><path d="M591.389,348.649s-41.18-51.856-51.856-33.554,47.947,49.088,47.947,49.088Z" transform="translate(-128.968 -40.511)" fill="#ffb9b9"/></g><g transform="translate(-19 6)"><rect width="27" height="33" transform="translate(158 294)" fill="#fff"/><circle cx="1" cy="1" r="1" transform="translate(171 295)" fill="#3f3d56"/><g transform="translate(1 -2)"><rect width="8" height="8" transform="translate(159 303)" fill="#3f3d56"/><rect width="6" height="6" transform="translate(160 304)" fill="#fff"/></g><g transform="translate(16 14)"><rect width="8" height="8" transform="translate(159 303)" fill="#3f3d56"/><rect width="6" height="6" transform="translate(160 304)" fill="#fff"/></g><g transform="translate(1 14)"><rect width="8" height="8" transform="translate(159 303)" fill="#3f3d56"/><rect width="6" height="6" transform="translate(160 304)" fill="#fff"/></g><rect width="2" height="2" transform="translate(160 310)" fill="#3f3d56"/><rect width="2" height="2" transform="translate(162 312)" fill="#3f3d56"/><rect width="2" height="2" transform="translate(165 310)" fill="#3f3d56"/><rect width="2" height="2" transform="translate(162 312)" fill="#3f3d56"/><rect width="2" height="2" transform="translate(164 314)" fill="#3f3d56"/><rect width="2" height="2" transform="translate(165 312)" fill="#3f3d56"/><rect width="2" height="2" transform="translate(167 312)" fill="#3f3d56"/><rect width="2" height="2" transform="translate(169 310)" fill="#3f3d56"/><rect width="2" height="2" transform="translate(169 312)" fill="#3f3d56"/><rect width="2" height="2" transform="translate(171 308)" fill="#3f3d56"/><rect width="2" height="2" transform="translate(171 314)" fill="#3f3d56"/><rect width="2" height="2" transform="translate(169 317)" fill="#3f3d56"/><rect width="2" height="2" transform="translate(171 317)" fill="#3f3d56"/><rect width="2" height="2" transform="translate(169 319)" fill="#3f3d56"/><rect width="2" height="2" transform="translate(174 304)" fill="#3f3d56"/><rect width="2" height="2" transform="translate(176 306)" fill="#3f3d56"/><rect width="2" height="2" transform="translate(176 302)" fill="#3f3d56"/><rect width="2" height="2" transform="translate(178 304)" fill="#3f3d56"/><rect width="2" height="2" transform="translate(176 310)" fill="#3f3d56"/><rect width="2" height="2" transform="translate(176 314)" fill="#3f3d56"/><rect width="2" height="2" transform="translate(180 312)" fill="#3f3d56"/><rect width="2" height="2" transform="translate(170 303)" fill="#3f3d56"/><rect width="2" height="2" transform="translate(170 301)" fill="#3f3d56"/><rect width="2" height="2" transform="translate(180 301)" fill="#3f3d56"/><rect width="2" height="2" transform="translate(180 303)" fill="#3f3d56"/><rect width="2" height="2" transform="translate(174 310)" fill="#3f3d56"/><rect width="2" height="2" transform="translate(176 312)" fill="#3f3d56"/><rect width="2" height="2" transform="translate(178 312)" fill="#3f3d56"/><rect width="2" height="2" transform="translate(169 321)" fill="#3f3d56"/><rect width="2" height="2" transform="translate(171 321)" fill="#3f3d56"/><rect width="4" height="4" transform="translate(162 319)" fill="#3f3d56"/><rect width="4" height="4" transform="translate(177 319)" fill="#3f3d56"/><rect width="4" height="4" transform="translate(162 303)" fill="#3f3d56"/></g></g></svg>